# xmcd CD database file generated by OrangeCD 5.1
#
# Track frame offsets:
#	150
#	16196
#	33440
#	49662
#	66768
#	83913
#	99959
#	112635
#	126761
#	142073
#	154113
#	167325
#	179054
#	194345
#	208820
#	220581
#	242840
#	268514
#	288134
#	305854
#	320728
#
# Disc length: 4420 seconds
#
# Revision: 0
# Processed by: cddbd v1.5PL3 Copyright (c) Steve Scherf et al.
# Submitted via: OrangeCD 5.1
#
DISCID=2a114215
DTITLE=Scooter Lee - Puttin' On The Ritz And The Rest Of The Best
DYEAR=2003
DGENRE=Country
TTITLE0=I Love The Nightlife
TTITLE1=Be Bop A Lula
TTITLE2=Birmingham
TTITLE3=Can't Help It
TTITLE4=Merry Go Round
TTITLE5=No Options Here
TTITLE6=OeeOeeO
TTITLE7=Please Please
TTITLE8=What Kind Of Fool
TTITLE9=Where's Hank Williams
TTITLE10=Would You Consider
TTITLE11=Baby You Know Where I Am
TTITLE12=Jam Up Jelly Tight Mix
TTITLE13=Let's Break Up Tomorrow
TTITLE14=Wasn't That Love
TTITLE15=Cool Cool Mardi Gras
TTITLE16=Wild Wild West
TTITLE17=Called To Say I Love You
TTITLE18=Puttin' On The Ritz
TTITLE19=Lying Cheating Heart
TTITLE20=Wasted days, Wasted Nights
EXTD=
EXTT0=
EXTT1=
EXTT2=
EXTT3=
EXTT4=
EXTT5=
EXTT6=
EXTT7=
EXTT8=
EXTT9=
EXTT10=
EXTT11=
EXTT12=
EXTT13=
EXTT14=
EXTT15=
EXTT16=
EXTT17=
EXTT18=
EXTT19=
EXTT20=
PLAYORDER=
